<svg width="816" height="554" viewBox="0 0 816 554" fill="none" xmlns="http://www.w3.org/2000/svg">
<path d="M603.275 507.58L431.433 501C414.278 500.358 400.738 486.588 400.738 469.8V110.261C400.705 92.5108 415.79 78.3553 433.93 79.0615L605.772 85.6096C622.927 86.2516 636.466 100.022 636.466 116.81V476.412C636.466 494.131 621.415 508.287 603.275 507.58Z" fill="#FDC636"/>
<path d="M583.862 524.89L415.379 518.267C398.559 517.621 385.284 503.762 385.284 486.867V125.018C385.252 107.153 400.041 92.9066 417.827 93.6173L586.31 100.208C603.13 100.854 616.405 114.712 616.405 131.608V493.521C616.405 511.354 601.647 525.6 583.862 524.89Z" fill="#FDC636"/>
<path d="M616.397 448.947L385.252 440.34V136.072L616.397 144.679V448.947Z" fill="white"/>
<path d="M468.008 93.5919C492.748 93.5919 512.804 73.536 512.804 48.7959C512.804 24.0558 492.748 4 468.008 4C443.268 4 423.212 24.0558 423.212 48.7959C423.212 73.536 443.268 93.5919 468.008 93.5919Z" fill="white" stroke="black" stroke-width="6.99" stroke-miterlimit="10" stroke-linecap="round" stroke-linejoin="round"/>
<path d="M478.833 92.2642C454.814 98.2608 430.504 83.6421 424.507 59.6235C418.51 35.6048 433.129 11.2944 457.148 5.29785L478.833 92.2642Z" fill="black"/>
<path d="M530.884 94.922C555.624 94.922 575.68 74.8661 575.68 50.126C575.68 25.3859 555.624 5.33008 530.884 5.33008C506.144 5.33008 486.088 25.3859 486.088 50.126C486.088 74.8661 506.144 94.922 530.884 94.922Z" fill="white" stroke="black" stroke-width="6.99" stroke-miterlimit="10" stroke-linecap="round" stroke-linejoin="round"/>
<path d="M541.743 93.6255C517.724 99.6221 493.414 85.0034 487.417 60.9848C481.421 36.9661 496.039 12.6557 520.058 6.65918L541.743 93.6255Z" fill="black"/>
<path d="M585.051 524.89L415.559 518.245C398.639 517.597 385.284 503.691 385.284 486.739V123.639C385.284 105.747 400.162 91.452 418.055 92.1327L587.547 98.7776C604.467 99.4258 617.821 113.331 617.821 130.284V493.384C617.789 511.276 602.911 525.603 585.051 524.89Z" stroke="black" stroke-width="6.99" stroke-miterlimit="10" stroke-linecap="round" stroke-linejoin="round"/>
<path d="M560.417 83.5439L606.088 85.4564C623.008 86.1046 636.363 99.8157 636.363 116.476V476.367C636.363 478.96 636.136 481.489 635.455 483.855C632.603 493.579 607.223 516.917 607.223 516.917" stroke="black" stroke-width="6.99" stroke-miterlimit="10" stroke-linecap="round" stroke-linejoin="round"/>
<path d="M400.744 96.4766L414.293 86.8173C422.526 81.1773 428.037 78.5842 436.561 78.9083" stroke="black" stroke-width="6.99" stroke-miterlimit="10" stroke-linecap="round" stroke-linejoin="round"/>
<path d="M591.438 524.924C597.661 521.65 606.964 518.279 613.09 510.791C615.716 507.582 624.565 500.84 628.26 495.071C630.626 491.408 636.039 481.781 636.363 476.368C636.461 474.715 635.423 471.733 635.423 467.324C635.423 458.605 635.553 456.142 636.752 456.142C737.689 456.142 816.001 479.707 816.001 504.86C816.001 531.958 725.275 553.902 613.317 553.902C501.36 553.902 418.316 527.193 399.71 514.357L422.886 518.538L446.321 519.446L472.22 520.451C472.22 520.451 496.109 521.715 513.612 522.071C537.047 522.558 550.434 523.498 550.434 523.498L591.438 524.924Z" fill="black"/>
<path d="M617.789 466.449C617.789 484.341 602.911 498.636 585.018 497.955L415.526 491.31C398.606 490.662 385.252 476.756 385.252 459.804" stroke="black" stroke-width="6.99" stroke-miterlimit="10" stroke-linecap="round" stroke-linejoin="round"/>
<path d="M617.789 448.948L385.252 440.293" stroke="black" stroke-width="6.99" stroke-miterlimit="10" stroke-linecap="round" stroke-linejoin="round"/>
<path d="M617.789 142.99L385.252 134.336" stroke="black" stroke-width="6.99" stroke-miterlimit="10" stroke-linecap="round" stroke-linejoin="round"/>
<path d="M520.354 114.176L461.166 111.972" stroke="black" stroke-width="6.99" stroke-miterlimit="10" stroke-linecap="round" stroke-linejoin="round"/>
<path d="M493.646 201.756V238.999" stroke="black" stroke-width="6.99" stroke-miterlimit="10" stroke-linecap="round" stroke-linejoin="round"/>
<path d="M493.646 281.268V318.511" stroke="black" stroke-width="6.99" stroke-miterlimit="10" stroke-linecap="round" stroke-linejoin="round"/>
<path d="M551.634 260.101H514.391" stroke="black" stroke-width="6.99" stroke-miterlimit="10" stroke-linecap="round" stroke-linejoin="round"/>
<path d="M50.9053 515.424C50.9053 515.424 59.1708 411.699 144.419 409.495C237.09 407.097 249.537 521.226 249.537 521.226C249.537 521.226 249.732 370.177 337.541 381.36C365.417 386.125 354.915 422.266 341.82 416.951C325.677 410.403 304.706 314.199 395.4 272.45C413.746 264.022 433.875 260.132 454.069 260.132H472.48" stroke="black" stroke-width="6.99" stroke-miterlimit="10" stroke-linecap="round" stroke-linejoin="round"/>
<path d="M534.554 301.622L508.201 275.27" stroke="black" stroke-width="6.99" stroke-miterlimit="10" stroke-linecap="round" stroke-linejoin="round"/>
<path d="M478.183 245.644L451.83 219.324" stroke="black" stroke-width="6.99" stroke-miterlimit="10" stroke-linecap="round" stroke-linejoin="round"/>
<path d="M451.83 300.877L478.183 274.557" stroke="black" stroke-width="6.99" stroke-miterlimit="10" stroke-linecap="round" stroke-linejoin="round"/>
<path d="M508.461 243.862L534.813 217.51" stroke="black" stroke-width="6.99" stroke-miterlimit="10" stroke-linecap="round" stroke-linejoin="round"/>
<path d="M501.782 473.579C504.518 466.078 501.583 458.118 495.226 455.799C488.869 453.48 481.498 457.68 478.762 465.181C476.026 472.681 478.961 480.641 485.318 482.96C491.674 485.279 499.046 481.079 501.782 473.579Z" stroke="black" stroke-width="6.99" stroke-miterlimit="10"/>
<path d="M695.311 289.291C698.834 289.451 701.82 286.725 701.98 283.202C702.14 279.679 699.414 276.693 695.891 276.533C692.368 276.373 689.382 279.1 689.222 282.623C689.062 286.146 691.788 289.131 695.311 289.291Z" fill="black"/>
<path d="M725.002 301.444C725.546 298.743 725.833 295.998 725.862 293.209C725.975 284.291 723.4 275.251 717.917 267.377C712.343 259.369 704.583 253.761 696.021 250.809C693.401 249.911 690.706 249.237 687.966 248.853" stroke="black" stroke-width="6.99" stroke-miterlimit="10"/>
<path d="M749.051 306.268C750.184 301.322 750.772 296.222 750.776 291.128C750.759 277.921 746.888 264.572 738.754 252.911C730.559 241.15 719.289 232.819 706.777 228.26C702.084 226.554 697.207 225.359 692.271 224.713" stroke="black" stroke-width="6.99" stroke-miterlimit="10"/>
<path d="M776.839 311.713C778.449 304.128 779.125 296.372 778.861 288.605C778.28 270.668 772.67 252.729 761.675 236.915C750.525 220.931 735.411 209.343 718.585 202.609C718.522 202.573 718.489 202.572 718.426 202.537C711.446 199.754 704.169 197.801 696.788 196.72" stroke="black" stroke-width="6.99" stroke-miterlimit="10"/>
<path d="M700.818 170.882C710.825 172.018 720.644 174.443 730.085 178.051C751.419 186.255 770.62 200.722 784.694 220.927C798.614 240.93 805.529 263.73 805.927 286.396C806.109 296.69 804.961 306.956 802.497 316.935" stroke="black" stroke-width="6.99" stroke-miterlimit="10"/>
<path d="M21.665 427.681L37.9368 487.55" stroke="black" stroke-width="6.99" stroke-miterlimit="10" stroke-linecap="round" stroke-linejoin="round"/>
<path d="M4 483.402L29.8014 507.421" stroke="black" stroke-width="6.99" stroke-miterlimit="10" stroke-linecap="round" stroke-linejoin="round"/>
<path d="M446.056 344.511L445.894 355.24L452.765 355.402" stroke="black" stroke-width="5" stroke-miterlimit="10" stroke-linecap="round" stroke-linejoin="round"/>
<path d="M465.633 350.28C465.568 353.36 463.332 355.791 460.609 355.726C457.919 355.661 455.779 353.165 455.844 350.118C455.909 347.104 458.113 344.673 460.804 344.673C463.494 344.705 465.666 347.201 465.633 350.28Z" stroke="black" stroke-width="5" stroke-miterlimit="10" stroke-linecap="round" stroke-linejoin="round"/>
<path d="M480.22 356.179L474.969 344.834L471.565 351.544L469.361 355.92" stroke="black" stroke-width="5" stroke-miterlimit="10" stroke-linecap="round" stroke-linejoin="round"/>
<path d="M477.787 351.576L471.726 351.479" stroke="black" stroke-width="5" stroke-miterlimit="10" stroke-linecap="round" stroke-linejoin="round"/>
<path d="M484.921 356.179C485.374 356.276 485.828 356.309 486.314 356.309C490.269 356.406 493.51 353.91 493.575 350.766C493.64 347.622 490.463 344.996 486.509 344.964C485.99 344.964 485.472 344.996 484.985 345.094L484.791 356.179H484.921Z" stroke="black" stroke-width="5" stroke-miterlimit="10" stroke-linecap="round" stroke-linejoin="round"/>
<path d="M499.636 347.851L499.474 356.829" stroke="black" stroke-width="5" stroke-miterlimit="10" stroke-linecap="round" stroke-linejoin="round"/>
<path d="M499.699 342.501V344.219" stroke="black" stroke-width="5" stroke-miterlimit="10" stroke-linecap="round" stroke-linejoin="round"/>
<path d="M506.313 356.797L506.54 345.16L516.848 357.024L517.042 345.29" stroke="black" stroke-width="5" stroke-miterlimit="10" stroke-linecap="round" stroke-linejoin="round"/>
<path d="M529.588 345.419C526.217 345.387 523.429 348.045 523.397 351.383C523.364 354.722 526.022 357.477 529.393 357.574C532.797 357.672 535.617 354.981 535.682 351.61L529.491 351.513" stroke="black" stroke-width="5" stroke-miterlimit="10" stroke-linecap="round" stroke-linejoin="round"/>
<path d="M553.898 357.477C553.898 358.255 554.612 358.936 555.487 358.936C556.394 358.968 557.107 358.32 557.14 357.542C557.14 356.764 556.427 356.083 555.552 356.083C554.644 356.083 553.931 356.699 553.898 357.477Z" fill="black"/>
<path d="M547.318 357.346C547.318 358.124 547.999 358.772 548.874 358.804C549.749 358.837 550.495 358.221 550.495 357.411C550.495 356.633 549.814 355.984 548.907 355.952C548.031 355.919 547.318 356.535 547.318 357.346Z" fill="black"/>
<path d="M540.805 357.183C540.805 357.961 541.485 358.61 542.361 358.642C543.236 358.674 543.949 358.059 543.949 357.281C543.949 356.503 543.268 355.854 542.393 355.822C541.518 355.79 540.805 356.405 540.805 357.183Z" fill="black"/>
</svg>
