<svg width="824" height="261" viewBox="0 0 824 261" fill="none" xmlns="http://www.w3.org/2000/svg">
<path d="M94.2798 24V0.727272H103.189C104.871 0.727272 106.268 0.992423 107.382 1.52273C108.503 2.04545 109.34 2.76136 109.893 3.67045C110.454 4.57954 110.734 5.60985 110.734 6.76136C110.734 7.70833 110.553 8.51894 110.189 9.19318C109.825 9.85985 109.337 10.4015 108.723 10.8182C108.109 11.2348 107.424 11.5341 106.666 11.7159V11.9432C107.492 11.9886 108.284 12.2424 109.041 12.7045C109.806 13.1591 110.431 13.803 110.916 14.6364C111.401 15.4697 111.643 16.4773 111.643 17.6591C111.643 18.8636 111.352 19.947 110.768 20.9091C110.185 21.8636 109.306 22.6174 108.132 23.1705C106.958 23.7235 105.481 24 103.7 24H94.2798ZM98.4957 20.4773H103.03C104.56 20.4773 105.662 20.1856 106.337 19.6023C107.018 19.0114 107.359 18.2538 107.359 17.3295C107.359 16.6402 107.189 16.0189 106.848 15.4659C106.507 14.9053 106.022 14.4659 105.393 14.1477C104.765 13.822 104.015 13.6591 103.143 13.6591H98.4957V20.4773ZM98.4957 10.625H102.666C103.393 10.625 104.049 10.4924 104.632 10.2273C105.215 9.95454 105.674 9.57197 106.007 9.07955C106.348 8.57955 106.518 7.98864 106.518 7.30682C106.518 6.4053 106.2 5.66288 105.564 5.07954C104.935 4.49621 104 4.20454 102.757 4.20454H98.4957V10.625ZM120.152 24.3523C119.046 24.3523 118.05 24.1553 117.163 23.7614C116.285 23.3598 115.588 22.7689 115.072 21.9886C114.565 21.2083 114.311 20.2462 114.311 19.1023C114.311 18.1174 114.493 17.303 114.857 16.6591C115.22 16.0152 115.716 15.5 116.345 15.1136C116.974 14.7273 117.682 14.4356 118.47 14.2386C119.266 14.0341 120.088 13.8864 120.936 13.7955C121.959 13.6894 122.788 13.5947 123.425 13.5114C124.061 13.4205 124.523 13.2841 124.811 13.1023C125.107 12.9129 125.254 12.6212 125.254 12.2273V12.1591C125.254 11.303 125 10.6402 124.493 10.1705C123.985 9.70076 123.254 9.46591 122.3 9.46591C121.292 9.46591 120.493 9.68561 119.902 10.125C119.319 10.5644 118.925 11.0833 118.72 11.6818L114.879 11.1364C115.182 10.0758 115.682 9.18939 116.379 8.47727C117.076 7.75757 117.929 7.2197 118.936 6.86364C119.944 6.5 121.057 6.31818 122.277 6.31818C123.118 6.31818 123.955 6.41667 124.788 6.61364C125.622 6.81061 126.383 7.13636 127.072 7.59091C127.762 8.03788 128.315 8.64773 128.732 9.42045C129.156 10.1932 129.368 11.1591 129.368 12.3182V24H125.413V21.6023H125.277C125.027 22.0871 124.675 22.5417 124.22 22.9659C123.773 23.3826 123.209 23.7197 122.527 23.9773C121.853 24.2273 121.061 24.3523 120.152 24.3523ZM121.22 21.3295C122.046 21.3295 122.762 21.1667 123.368 20.8409C123.974 20.5076 124.44 20.0682 124.766 19.5227C125.099 18.9773 125.266 18.3826 125.266 17.7386V15.6818C125.137 15.7879 124.917 15.8864 124.607 15.9773C124.304 16.0682 123.963 16.1477 123.584 16.2159C123.205 16.2841 122.83 16.3447 122.459 16.3977C122.088 16.4508 121.766 16.4962 121.493 16.5341C120.879 16.6174 120.33 16.7538 119.845 16.9432C119.36 17.1326 118.978 17.3977 118.697 17.7386C118.417 18.072 118.277 18.5038 118.277 19.0341C118.277 19.7917 118.554 20.3636 119.107 20.75C119.66 21.1364 120.364 21.3295 121.22 21.3295ZM133.504 30.5455V6.54545H137.55V9.43182H137.788C138 9.00758 138.3 8.55682 138.686 8.07955C139.072 7.5947 139.595 7.18182 140.254 6.84091C140.913 6.49242 141.754 6.31818 142.777 6.31818C144.125 6.31818 145.341 6.66288 146.425 7.35227C147.516 8.03409 148.379 9.04545 149.016 10.3864C149.66 11.7197 149.982 13.3561 149.982 15.2955C149.982 17.2121 149.667 18.8409 149.038 20.1818C148.41 21.5227 147.554 22.5455 146.47 23.25C145.387 23.9545 144.16 24.3068 142.788 24.3068C141.788 24.3068 140.959 24.1402 140.3 23.8068C139.641 23.4735 139.11 23.072 138.709 22.6023C138.315 22.125 138.008 21.6742 137.788 21.25H137.618V30.5455H133.504ZM137.538 15.2727C137.538 16.4015 137.697 17.3902 138.016 18.2386C138.341 19.0871 138.807 19.75 139.413 20.2273C140.027 20.697 140.769 20.9318 141.641 20.9318C142.55 20.9318 143.311 20.6894 143.925 20.2045C144.538 19.7121 145 19.0417 145.311 18.1932C145.629 17.3371 145.788 16.3636 145.788 15.2727C145.788 14.1894 145.633 13.2273 145.322 12.3864C145.012 11.5455 144.55 10.8864 143.936 10.4091C143.322 9.93182 142.557 9.69318 141.641 9.69318C140.762 9.69318 140.016 9.92424 139.402 10.3864C138.788 10.8485 138.322 11.4962 138.004 12.3295C137.694 13.1629 137.538 14.1439 137.538 15.2727ZM157.47 18.4318L164.459 6.54545H168.686V24H164.709V12.1023L157.743 24H153.504V6.54545H157.47V18.4318ZM177.933 24.3523C176.827 24.3523 175.831 24.1553 174.945 23.7614C174.066 23.3598 173.369 22.7689 172.854 21.9886C172.346 21.2083 172.092 20.2462 172.092 19.1023C172.092 18.1174 172.274 17.303 172.638 16.6591C173.001 16.0152 173.498 15.5 174.126 15.1136C174.755 14.7273 175.464 14.4356 176.251 14.2386C177.047 14.0341 177.869 13.8864 178.717 13.7955C179.74 13.6894 180.57 13.5947 181.206 13.5114C181.842 13.4205 182.304 13.2841 182.592 13.1023C182.888 12.9129 183.036 12.6212 183.036 12.2273V12.1591C183.036 11.303 182.782 10.6402 182.274 10.1705C181.767 9.70076 181.036 9.46591 180.081 9.46591C179.073 9.46591 178.274 9.68561 177.683 10.125C177.1 10.5644 176.706 11.0833 176.501 11.6818L172.661 11.1364C172.964 10.0758 173.464 9.18939 174.161 8.47727C174.857 7.75757 175.71 7.2197 176.717 6.86364C177.725 6.5 178.839 6.31818 180.058 6.31818C180.899 6.31818 181.736 6.41667 182.57 6.61364C183.403 6.81061 184.164 7.13636 184.854 7.59091C185.543 8.03788 186.096 8.64773 186.513 9.42045C186.937 10.1932 187.149 11.1591 187.149 12.3182V24H183.195V21.6023H183.058C182.808 22.0871 182.456 22.5417 182.001 22.9659C181.554 23.3826 180.99 23.7197 180.308 23.9773C179.634 24.2273 178.842 24.3523 177.933 24.3523ZM179.001 21.3295C179.827 21.3295 180.543 21.1667 181.149 20.8409C181.755 20.5076 182.221 20.0682 182.547 19.5227C182.88 18.9773 183.047 18.3826 183.047 17.7386V15.6818C182.918 15.7879 182.698 15.8864 182.388 15.9773C182.085 16.0682 181.744 16.1477 181.365 16.2159C180.986 16.2841 180.611 16.3447 180.24 16.3977C179.869 16.4508 179.547 16.4962 179.274 16.5341C178.661 16.6174 178.111 16.7538 177.626 16.9432C177.142 17.1326 176.759 17.3977 176.479 17.7386C176.198 18.072 176.058 18.5038 176.058 19.0341C176.058 19.7917 176.335 20.3636 176.888 20.75C177.441 21.1364 178.145 21.3295 179.001 21.3295ZM203.274 13.5682V16.9432H193.979V13.5682H203.274ZM195.251 6.54545V24H191.286V6.54545H195.251ZM205.967 6.54545V24H202.013V6.54545H205.967ZM208.175 9.92045V6.54545H223.447V9.92045H217.8V24H213.822V9.92045H208.175ZM234.615 24V20.9545L242.695 13.0341C243.467 12.2538 244.111 11.5606 244.626 10.9545C245.142 10.3485 245.528 9.76136 245.786 9.19318C246.043 8.625 246.172 8.01894 246.172 7.375C246.172 6.64015 246.005 6.01136 245.672 5.48864C245.339 4.95833 244.88 4.54924 244.297 4.26136C243.714 3.97348 243.051 3.82954 242.308 3.82954C241.543 3.82954 240.873 3.98864 240.297 4.30682C239.721 4.61742 239.274 5.06061 238.956 5.63636C238.645 6.21212 238.49 6.89773 238.49 7.69318H234.479C234.479 6.21591 234.816 4.93182 235.49 3.84091C236.164 2.75 237.092 1.9053 238.274 1.30682C239.464 0.708333 240.827 0.40909 242.365 0.40909C243.926 0.40909 245.297 0.700757 246.479 1.28409C247.661 1.86742 248.577 2.66667 249.229 3.68182C249.888 4.69697 250.217 5.85606 250.217 7.15909C250.217 8.0303 250.051 8.88636 249.717 9.72727C249.384 10.5682 248.797 11.5 247.956 12.5227C247.123 13.5455 245.952 14.7841 244.445 16.2386L240.433 20.3182V20.4773H250.57V24H234.615ZM257.07 24.25C256.38 24.25 255.789 24.0076 255.297 23.5227C254.804 23.0379 254.562 22.447 254.57 21.75C254.562 21.0682 254.804 20.4848 255.297 20C255.789 19.5152 256.38 19.2727 257.07 19.2727C257.736 19.2727 258.316 19.5152 258.808 20C259.308 20.4848 259.562 21.0682 259.57 21.75C259.562 22.2121 259.441 22.6326 259.206 23.0114C258.979 23.3902 258.676 23.6932 258.297 23.9205C257.926 24.1402 257.517 24.25 257.07 24.25ZM291.138 8.57955H286.888C286.767 7.88258 286.543 7.26515 286.217 6.72727C285.892 6.18182 285.486 5.7197 285.001 5.34091C284.517 4.96212 283.964 4.67803 283.342 4.48864C282.729 4.29167 282.066 4.19318 281.354 4.19318C280.089 4.19318 278.967 4.51136 277.99 5.14773C277.013 5.77651 276.248 6.70076 275.695 7.92045C275.142 9.13258 274.865 10.6136 274.865 12.3636C274.865 14.1439 275.142 15.6439 275.695 16.8636C276.255 18.0758 277.02 18.9924 277.99 19.6136C278.967 20.2273 280.085 20.5341 281.342 20.5341C282.039 20.5341 282.691 20.4432 283.297 20.2614C283.911 20.072 284.46 19.7955 284.945 19.4318C285.437 19.0682 285.85 18.6212 286.183 18.0909C286.524 17.5606 286.759 16.9545 286.888 16.2727L291.138 16.2955C290.979 17.4015 290.634 18.4394 290.104 19.4091C289.581 20.3788 288.895 21.2348 288.047 21.9773C287.198 22.7121 286.206 23.2879 285.07 23.7045C283.933 24.1136 282.672 24.3182 281.286 24.3182C279.24 24.3182 277.414 23.8447 275.808 22.8977C274.202 21.9508 272.937 20.5833 272.013 18.7955C271.089 17.0076 270.626 14.8636 270.626 12.3636C270.626 9.85606 271.092 7.71212 272.024 5.93182C272.956 4.14394 274.225 2.77651 275.831 1.82954C277.437 0.882575 279.255 0.40909 281.286 0.40909C282.581 0.40909 283.786 0.590908 284.899 0.954544C286.013 1.31818 287.005 1.85227 287.876 2.55682C288.748 3.25379 289.464 4.10985 290.024 5.125C290.592 6.13258 290.964 7.28409 291.138 8.57955ZM294.817 24V6.54545H298.93V13.5909H300.43L305.68 6.54545H310.635L304.169 15.1136L310.703 24H305.726L300.942 17.4205H298.93V24H294.817ZM318.058 24.3523C316.952 24.3523 315.956 24.1553 315.07 23.7614C314.191 23.3598 313.494 22.7689 312.979 21.9886C312.471 21.2083 312.217 20.2462 312.217 19.1023C312.217 18.1174 312.399 17.303 312.763 16.6591C313.126 16.0152 313.623 15.5 314.251 15.1136C314.88 14.7273 315.589 14.4356 316.376 14.2386C317.172 14.0341 317.994 13.8864 318.842 13.7955C319.865 13.6894 320.695 13.5947 321.331 13.5114C321.967 13.4205 322.429 13.2841 322.717 13.1023C323.013 12.9129 323.161 12.6212 323.161 12.2273V12.1591C323.161 11.303 322.907 10.6402 322.399 10.1705C321.892 9.70076 321.161 9.46591 320.206 9.46591C319.198 9.46591 318.399 9.68561 317.808 10.125C317.225 10.5644 316.831 11.0833 316.626 11.6818L312.786 11.1364C313.089 10.0758 313.589 9.18939 314.286 8.47727C314.982 7.75757 315.835 7.2197 316.842 6.86364C317.85 6.5 318.964 6.31818 320.183 6.31818C321.024 6.31818 321.861 6.41667 322.695 6.61364C323.528 6.81061 324.289 7.13636 324.979 7.59091C325.668 8.03788 326.221 8.64773 326.638 9.42045C327.062 10.1932 327.274 11.1591 327.274 12.3182V24H323.32V21.6023H323.183C322.933 22.0871 322.581 22.5417 322.126 22.9659C321.679 23.3826 321.115 23.7197 320.433 23.9773C319.759 24.2273 318.967 24.3523 318.058 24.3523ZM319.126 21.3295C319.952 21.3295 320.668 21.1667 321.274 20.8409C321.88 20.5076 322.346 20.0682 322.672 19.5227C323.005 18.9773 323.172 18.3826 323.172 17.7386V15.6818C323.043 15.7879 322.823 15.8864 322.513 15.9773C322.21 16.0682 321.869 16.1477 321.49 16.2159C321.111 16.2841 320.736 16.3447 320.365 16.3977C319.994 16.4508 319.672 16.4962 319.399 16.5341C318.786 16.6174 318.236 16.7538 317.751 16.9432C317.267 17.1326 316.884 17.3977 316.604 17.7386C316.323 18.072 316.183 18.5038 316.183 19.0341C316.183 19.7917 316.46 20.3636 317.013 20.75C317.566 21.1364 318.27 21.3295 319.126 21.3295ZM345.99 6.54545V24H342.036V6.54545H345.99ZM344.138 14.4318V17.7955C343.691 17.9924 343.183 18.1705 342.615 18.3295C342.054 18.4811 341.46 18.6023 340.831 18.6932C340.21 18.7841 339.589 18.8295 338.967 18.8295C336.634 18.8295 334.789 18.3068 333.433 17.2614C332.085 16.2083 331.411 14.5682 331.411 12.3409V6.52273H335.342V12.3409C335.342 13.0909 335.475 13.6932 335.74 14.1477C336.005 14.6023 336.407 14.9356 336.945 15.1477C337.482 15.3523 338.157 15.4545 338.967 15.4545C339.876 15.4545 340.74 15.3636 341.558 15.1818C342.376 15 343.236 14.75 344.138 14.4318ZM354.095 18.4318L361.084 6.54545H365.311V24H361.334V12.1023L354.368 24H350.129V6.54545H354.095V18.4318ZM369.536 24V6.54545H376.865C378.933 6.54545 380.566 6.95833 381.763 7.78409C382.967 8.60985 383.57 9.76136 383.57 11.2386C383.57 12.2159 383.229 13.0152 382.547 13.6364C381.873 14.25 380.952 14.6629 379.786 14.875C380.702 14.9508 381.505 15.1818 382.195 15.5682C382.892 15.9545 383.437 16.4621 383.831 17.0909C384.225 17.7197 384.422 18.4432 384.422 19.2614C384.422 20.2235 384.168 21.0606 383.661 21.7727C383.161 22.4773 382.429 23.0265 381.467 23.4205C380.513 23.8068 379.354 24 377.99 24H369.536ZM373.388 20.7614H377.99C378.748 20.7614 379.342 20.5833 379.774 20.2273C380.206 19.8636 380.422 19.3712 380.422 18.75C380.422 18.0303 380.206 17.4659 379.774 17.0568C379.342 16.6402 378.748 16.4318 377.99 16.4318H373.388V20.7614ZM373.388 13.7727H376.945C377.505 13.7727 377.986 13.6932 378.388 13.5341C378.789 13.3674 379.096 13.1364 379.308 12.8409C379.52 12.5379 379.626 12.178 379.626 11.7614C379.626 11.1629 379.38 10.6932 378.888 10.3523C378.403 10.0114 377.729 9.84091 376.865 9.84091H373.388V13.7727ZM392.839 24.3523C391.733 24.3523 390.737 24.1553 389.851 23.7614C388.972 23.3598 388.275 22.7689 387.76 21.9886C387.252 21.2083 386.999 20.2462 386.999 19.1023C386.999 18.1174 387.18 17.303 387.544 16.6591C387.908 16.0152 388.404 15.5 389.033 15.1136C389.661 14.7273 390.37 14.4356 391.158 14.2386C391.953 14.0341 392.775 13.8864 393.624 13.7955C394.646 13.6894 395.476 13.5947 396.112 13.5114C396.749 13.4205 397.211 13.2841 397.499 13.1023C397.794 12.9129 397.942 12.6212 397.942 12.2273V12.1591C397.942 11.303 397.688 10.6402 397.18 10.1705C396.673 9.70076 395.942 9.46591 394.987 9.46591C393.98 9.46591 393.18 9.68561 392.589 10.125C392.006 10.5644 391.612 11.0833 391.408 11.6818L387.567 11.1364C387.87 10.0758 388.37 9.18939 389.067 8.47727C389.764 7.75757 390.616 7.2197 391.624 6.86364C392.631 6.5 393.745 6.31818 394.964 6.31818C395.805 6.31818 396.643 6.41667 397.476 6.61364C398.309 6.81061 399.071 7.13636 399.76 7.59091C400.449 8.03788 401.002 8.64773 401.419 9.42045C401.843 10.1932 402.055 11.1591 402.055 12.3182V24H398.101V21.6023H397.964C397.714 22.0871 397.362 22.5417 396.908 22.9659C396.461 23.3826 395.896 23.7197 395.214 23.9773C394.54 24.2273 393.749 24.3523 392.839 24.3523ZM393.908 21.3295C394.733 21.3295 395.449 21.1667 396.055 20.8409C396.661 20.5076 397.127 20.0682 397.453 19.5227C397.786 18.9773 397.953 18.3826 397.953 17.7386V15.6818C397.824 15.7879 397.605 15.8864 397.294 15.9773C396.991 16.0682 396.65 16.1477 396.271 16.2159C395.893 16.2841 395.518 16.3447 395.146 16.3977C394.775 16.4508 394.453 16.4962 394.18 16.5341C393.567 16.6174 393.018 16.7538 392.533 16.9432C392.048 17.1326 391.665 17.3977 391.385 17.7386C391.105 18.072 390.964 18.5038 390.964 19.0341C390.964 19.7917 391.241 20.3636 391.794 20.75C392.347 21.1364 393.052 21.3295 393.908 21.3295ZM410.158 18.4318L417.146 6.54545H421.374V24H417.396V12.1023L410.43 24H406.192V6.54545H410.158V18.4318ZM416.021 0.545454H419.101C419.101 1.87121 418.62 2.94697 417.658 3.77273C416.703 4.59091 415.408 5 413.771 5C412.15 5 410.858 4.59091 409.896 3.77273C408.942 2.94697 408.468 1.87121 408.476 0.545454H411.533C411.533 1.09091 411.699 1.57954 412.033 2.01136C412.374 2.4356 412.953 2.64773 413.771 2.64773C414.574 2.64773 415.146 2.4356 415.487 2.01136C415.836 1.58712 416.014 1.09848 416.021 0.545454ZM423.643 9.92045V6.54545H438.916V9.92045H433.268V24H429.291V9.92045H423.643ZM449.2 24.3409C447.45 24.3409 445.939 23.9773 444.666 23.25C443.401 22.5152 442.428 21.4773 441.746 20.1364C441.064 18.7879 440.723 17.2008 440.723 15.375C440.723 13.5795 441.064 12.0038 441.746 10.6477C442.435 9.28409 443.397 8.22348 444.632 7.46591C445.867 6.70076 447.318 6.31818 448.984 6.31818C450.06 6.31818 451.075 6.49242 452.03 6.84091C452.992 7.18182 453.84 7.71212 454.575 8.43182C455.318 9.15151 455.901 10.0682 456.325 11.1818C456.75 12.2879 456.962 13.6061 456.962 15.1364V16.3977H442.655V13.625H453.018C453.011 12.8371 452.84 12.1364 452.507 11.5227C452.174 10.9015 451.708 10.4129 451.109 10.0568C450.518 9.70076 449.829 9.52273 449.041 9.52273C448.2 9.52273 447.462 9.72727 446.825 10.1364C446.189 10.5379 445.693 11.0682 445.337 11.7273C444.988 12.3788 444.81 13.0947 444.803 13.875V16.2955C444.803 17.3106 444.988 18.1818 445.359 18.9091C445.731 19.6288 446.25 20.1818 446.916 20.5682C447.583 20.947 448.363 21.1364 449.257 21.1364C449.856 21.1364 450.397 21.053 450.882 20.8864C451.367 20.7121 451.787 20.4583 452.143 20.125C452.5 19.7917 452.768 19.3788 452.95 18.8864L456.791 19.3182C456.549 20.3333 456.087 21.2197 455.405 21.9773C454.731 22.7273 453.867 23.3106 452.814 23.7273C451.761 24.1364 450.556 24.3409 449.2 24.3409ZM480.368 13.5682V16.9432H471.072V13.5682H480.368ZM472.345 6.54545V24H468.379V6.54545H472.345ZM483.061 6.54545V24H479.107V6.54545H483.061ZM492.246 24.3523C491.14 24.3523 490.143 24.1553 489.257 23.7614C488.378 23.3598 487.681 22.7689 487.166 21.9886C486.659 21.2083 486.405 20.2462 486.405 19.1023C486.405 18.1174 486.587 17.303 486.95 16.6591C487.314 16.0152 487.81 15.5 488.439 15.1136C489.068 14.7273 489.776 14.4356 490.564 14.2386C491.359 14.0341 492.181 13.8864 493.03 13.7955C494.053 13.6894 494.882 13.5947 495.518 13.5114C496.155 13.4205 496.617 13.2841 496.905 13.1023C497.2 12.9129 497.348 12.6212 497.348 12.2273V12.1591C497.348 11.303 497.094 10.6402 496.587 10.1705C496.079 9.70076 495.348 9.46591 494.393 9.46591C493.386 9.46591 492.587 9.68561 491.996 10.125C491.412 10.5644 491.018 11.0833 490.814 11.6818L486.973 11.1364C487.276 10.0758 487.776 9.18939 488.473 8.47727C489.17 7.75757 490.022 7.2197 491.03 6.86364C492.037 6.5 493.151 6.31818 494.371 6.31818C495.212 6.31818 496.049 6.41667 496.882 6.61364C497.715 6.81061 498.477 7.13636 499.166 7.59091C499.856 8.03788 500.409 8.64773 500.825 9.42045C501.25 10.1932 501.462 11.1591 501.462 12.3182V24H497.507V21.6023H497.371C497.121 22.0871 496.768 22.5417 496.314 22.9659C495.867 23.3826 495.303 23.7197 494.621 23.9773C493.946 24.2273 493.155 24.3523 492.246 24.3523ZM493.314 21.3295C494.14 21.3295 494.856 21.1667 495.462 20.8409C496.068 20.5076 496.534 20.0682 496.859 19.5227C497.193 18.9773 497.359 18.3826 497.359 17.7386V15.6818C497.231 15.7879 497.011 15.8864 496.7 15.9773C496.397 16.0682 496.056 16.1477 495.678 16.2159C495.299 16.2841 494.924 16.3447 494.553 16.3977C494.181 16.4508 493.859 16.4962 493.587 16.5341C492.973 16.6174 492.424 16.7538 491.939 16.9432C491.454 17.1326 491.071 17.3977 490.791 17.7386C490.511 18.072 490.371 18.5038 490.371 19.0341C490.371 19.7917 490.647 20.3636 491.2 20.75C491.753 21.1364 492.458 21.3295 493.314 21.3295ZM513.212 24.3409C511.469 24.3409 509.973 23.9583 508.723 23.1932C507.481 22.428 506.522 21.3712 505.848 20.0227C505.181 18.6667 504.848 17.1061 504.848 15.3409C504.848 13.5682 505.189 12.0038 505.871 10.6477C506.553 9.28409 507.515 8.22348 508.757 7.46591C510.007 6.70076 511.484 6.31818 513.189 6.31818C514.606 6.31818 515.859 6.57955 516.95 7.10227C518.049 7.61742 518.924 8.34848 519.575 9.29545C520.227 10.2348 520.598 11.3333 520.689 12.5909H516.757C516.598 11.75 516.219 11.0492 515.621 10.4886C515.03 9.92045 514.238 9.63636 513.246 9.63636C512.405 9.63636 511.666 9.86364 511.03 10.3182C510.393 10.7652 509.897 11.4091 509.541 12.25C509.193 13.0909 509.018 14.0985 509.018 15.2727C509.018 16.4621 509.193 17.4848 509.541 18.3409C509.89 19.1894 510.378 19.8447 511.007 20.3068C511.643 20.7614 512.39 20.9886 513.246 20.9886C513.852 20.9886 514.393 20.875 514.871 20.6477C515.356 20.4129 515.761 20.0758 516.087 19.6364C516.412 19.197 516.636 18.6629 516.757 18.0341H520.689C520.59 19.2689 520.227 20.3636 519.598 21.3182C518.969 22.2652 518.113 23.0076 517.03 23.5455C515.946 24.0758 514.674 24.3409 513.212 24.3409ZM532.004 24V6.54545H539.334C541.402 6.54545 543.035 6.95833 544.232 7.78409C545.436 8.60985 546.038 9.76136 546.038 11.2386C546.038 12.2159 545.697 13.0152 545.016 13.6364C544.341 14.25 543.421 14.6629 542.254 14.875C543.171 14.9508 543.974 15.1818 544.663 15.5682C545.36 15.9545 545.906 16.4621 546.3 17.0909C546.694 17.7197 546.891 18.4432 546.891 19.2614C546.891 20.2235 546.637 21.0606 546.129 21.7727C545.629 22.4773 544.898 23.0265 543.936 23.4205C542.982 23.8068 541.822 24 540.459 24H532.004ZM535.857 20.7614H540.459C541.216 20.7614 541.811 20.5833 542.243 20.2273C542.675 19.8636 542.891 19.3712 542.891 18.75C542.891 18.0303 542.675 17.4659 542.243 17.0568C541.811 16.6402 541.216 16.4318 540.459 16.4318H535.857V20.7614ZM535.857 13.7727H539.413C539.974 13.7727 540.455 13.6932 540.857 13.5341C541.258 13.3674 541.565 13.1364 541.777 12.8409C541.989 12.5379 542.095 12.178 542.095 11.7614C542.095 11.1629 541.849 10.6932 541.357 10.3523C540.872 10.0114 540.197 9.84091 539.334 9.84091H535.857V13.7727ZM556.678 29.0682V20.6136H558.064C558.435 20.3258 558.746 19.9356 558.996 19.4432C559.246 18.9432 559.45 18.3561 559.609 17.6818C559.776 17 559.912 16.2386 560.018 15.3977C560.125 14.5492 560.219 13.6364 560.303 12.6591L560.803 6.54545H573.416V20.6136H576.121V29.0682H572.143V24H560.723V29.0682H556.678ZM562.291 20.6136H569.484V9.86364H564.371L564.098 12.6591C563.946 14.5076 563.746 16.0909 563.496 17.4091C563.246 18.7273 562.844 19.7955 562.291 20.6136ZM586.805 24.3409C585.101 24.3409 583.624 23.9659 582.374 23.2159C581.124 22.4659 580.154 21.4167 579.464 20.0682C578.783 18.7197 578.442 17.1439 578.442 15.3409C578.442 13.5379 578.783 11.9583 579.464 10.6023C580.154 9.24621 581.124 8.19318 582.374 7.44318C583.624 6.69318 585.101 6.31818 586.805 6.31818C588.51 6.31818 589.987 6.69318 591.237 7.44318C592.487 8.19318 593.453 9.24621 594.135 10.6023C594.824 11.9583 595.169 13.5379 595.169 15.3409C595.169 17.1439 594.824 18.7197 594.135 20.0682C593.453 21.4167 592.487 22.4659 591.237 23.2159C589.987 23.9659 588.51 24.3409 586.805 24.3409ZM586.828 21.0455C587.752 21.0455 588.525 20.7917 589.146 20.2841C589.768 19.7689 590.23 19.0795 590.533 18.2159C590.843 17.3523 590.999 16.3902 590.999 15.3295C590.999 14.2614 590.843 13.2955 590.533 12.4318C590.23 11.5606 589.768 10.8674 589.146 10.3523C588.525 9.83712 587.752 9.57955 586.828 9.57955C585.881 9.57955 585.093 9.83712 584.464 10.3523C583.843 10.8674 583.377 11.5606 583.067 12.4318C582.764 13.2955 582.612 14.2614 582.612 15.3295C582.612 16.3902 582.764 17.3523 583.067 18.2159C583.377 19.0795 583.843 19.7689 584.464 20.2841C585.093 20.7917 585.881 21.0455 586.828 21.0455ZM606.274 24.3409C604.532 24.3409 603.036 23.9583 601.786 23.1932C600.543 22.428 599.585 21.3712 598.911 20.0227C598.244 18.6667 597.911 17.1061 597.911 15.3409C597.911 13.5682 598.251 12.0038 598.933 10.6477C599.615 9.28409 600.577 8.22348 601.82 7.46591C603.07 6.70076 604.547 6.31818 606.251 6.31818C607.668 6.31818 608.922 6.57955 610.013 7.10227C611.111 7.61742 611.986 8.34848 612.638 9.29545C613.289 10.2348 613.661 11.3333 613.751 12.5909H609.82C609.661 11.75 609.282 11.0492 608.683 10.4886C608.092 9.92045 607.301 9.63636 606.308 9.63636C605.467 9.63636 604.729 9.86364 604.092 10.3182C603.456 10.7652 602.96 11.4091 602.604 12.25C602.255 13.0909 602.081 14.0985 602.081 15.2727C602.081 16.4621 602.255 17.4848 602.604 18.3409C602.952 19.1894 603.441 19.8447 604.07 20.3068C604.706 20.7614 605.452 20.9886 606.308 20.9886C606.914 20.9886 607.456 20.875 607.933 20.6477C608.418 20.4129 608.823 20.0758 609.149 19.6364C609.475 19.197 609.698 18.6629 609.82 18.0341H613.751C613.653 19.2689 613.289 20.3636 612.661 21.3182C612.032 22.2652 611.176 23.0076 610.092 23.5455C609.009 24.0758 607.736 24.3409 606.274 24.3409ZM615.862 9.92045V6.54545H631.135V9.92045H625.487V24H621.51V9.92045H615.862ZM636.967 30.5455C636.407 30.5455 635.888 30.5 635.411 30.4091C634.941 30.3258 634.566 30.2273 634.286 30.1136L635.24 26.9091C635.839 27.0833 636.373 27.1667 636.842 27.1591C637.312 27.1515 637.725 27.0038 638.081 26.7159C638.445 26.4356 638.751 25.9659 639.001 25.3068L639.354 24.3636L633.024 6.54545H637.388L641.411 19.7273H641.592L645.626 6.54545H650.001L643.013 26.1136C642.687 27.0379 642.255 27.8295 641.717 28.4886C641.179 29.1553 640.52 29.6629 639.74 30.0114C638.967 30.3674 638.043 30.5455 636.967 30.5455ZM652.848 24V6.54545H667.587V24H663.621V9.92045H656.78V24H652.848ZM683.805 13.5682V16.9432H674.51V13.5682H683.805ZM675.783 6.54545V24H671.817V6.54545H675.783ZM686.499 6.54545V24H682.544V6.54545H686.499ZM693.445 12.2273H698.592C700.82 12.2273 702.543 12.7689 703.763 13.8523C704.982 14.9356 705.596 16.3561 705.604 18.1136C705.596 19.2576 705.316 20.2727 704.763 21.1591C704.217 22.0455 703.422 22.7424 702.376 23.25C701.339 23.75 700.077 24 698.592 24H690.661V6.54545H694.626V20.625H698.592C699.486 20.625 700.221 20.3977 700.797 19.9432C701.373 19.4811 701.661 18.8902 701.661 18.1705C701.661 17.4129 701.373 16.7955 700.797 16.3182C700.221 15.8409 699.486 15.6023 698.592 15.6023H693.445V12.2273ZM707.774 24V6.54545H711.888V24H707.774ZM719.493 6.54545L723.016 12.9886L726.595 6.54545H730.947L725.686 15.2727L731.038 24H726.709L723.016 17.7159L719.357 24H714.993L720.311 15.2727L715.129 6.54545H719.493ZM241.034 58.2159L246.216 45.5455H249.534L242.477 63H239.602L232.705 45.5455H235.989L241.034 58.2159ZM234.955 45.5455V63H230.989V45.5455H234.955ZM247.284 63V45.5455H251.216V63H247.284ZM260.386 63.3523C259.28 63.3523 258.284 63.1553 257.398 62.7614C256.519 62.3598 255.822 61.7689 255.307 60.9886C254.799 60.2083 254.545 59.2462 254.545 58.1023C254.545 57.1174 254.727 56.303 255.091 55.6591C255.455 55.0152 255.951 54.5 256.58 54.1136C257.208 53.7273 257.917 53.4356 258.705 53.2386C259.5 53.0341 260.322 52.8864 261.17 52.7955C262.193 52.6894 263.023 52.5947 263.659 52.5114C264.295 52.4205 264.758 52.2841 265.045 52.1023C265.341 51.9129 265.489 51.6212 265.489 51.2273V51.1591C265.489 50.303 265.235 49.6402 264.727 49.1705C264.22 48.7008 263.489 48.4659 262.534 48.4659C261.527 48.4659 260.727 48.6856 260.136 49.125C259.553 49.5644 259.159 50.0833 258.955 50.6818L255.114 50.1364C255.417 49.0758 255.917 48.1894 256.614 47.4773C257.311 46.7576 258.163 46.2197 259.17 45.8636C260.178 45.5 261.292 45.3182 262.511 45.3182C263.352 45.3182 264.189 45.4167 265.023 45.6136C265.856 45.8106 266.617 46.1364 267.307 46.5909C267.996 47.0379 268.549 47.6477 268.966 48.4205C269.39 49.1932 269.602 50.1591 269.602 51.3182V63H265.648V60.6023H265.511C265.261 61.0871 264.909 61.5417 264.455 61.9659C264.008 62.3826 263.443 62.7197 262.761 62.9773C262.087 63.2273 261.295 63.3523 260.386 63.3523ZM261.455 60.3295C262.28 60.3295 262.996 60.1667 263.602 59.8409C264.208 59.5076 264.674 59.0682 265 58.5227C265.333 57.9773 265.5 57.3826 265.5 56.7386V54.6818C265.371 54.7879 265.152 54.8864 264.841 54.9773C264.538 55.0682 264.197 55.1477 263.818 55.2159C263.439 55.2841 263.064 55.3447 262.693 55.3977C262.322 55.4508 262 55.4962 261.727 55.5341C261.114 55.6174 260.564 55.7538 260.08 55.9432C259.595 56.1326 259.212 56.3977 258.932 56.7386C258.652 57.072 258.511 57.5038 258.511 58.0341C258.511 58.7917 258.788 59.3636 259.341 59.75C259.894 60.1364 260.598 60.3295 261.455 60.3295ZM285.284 45.5455V48.9205H277.761V63H273.739V45.5455H285.284ZM292.886 63.3523C291.78 63.3523 290.784 63.1553 289.898 62.7614C289.019 62.3598 288.322 61.7689 287.807 60.9886C287.299 60.2083 287.045 59.2462 287.045 58.1023C287.045 57.1174 287.227 56.303 287.591 55.6591C287.955 55.0152 288.451 54.5 289.08 54.1136C289.708 53.7273 290.417 53.4356 291.205 53.2386C292 53.0341 292.822 52.8864 293.67 52.7955C294.693 52.6894 295.523 52.5947 296.159 52.5114C296.795 52.4205 297.258 52.2841 297.545 52.1023C297.841 51.9129 297.989 51.6212 297.989 51.2273V51.1591C297.989 50.303 297.735 49.6402 297.227 49.1705C296.72 48.7008 295.989 48.4659 295.034 48.4659C294.027 48.4659 293.227 48.6856 292.636 49.125C292.053 49.5644 291.659 50.0833 291.455 50.6818L287.614 50.1364C287.917 49.0758 288.417 48.1894 289.114 47.4773C289.811 46.7576 290.663 46.2197 291.67 45.8636C292.678 45.5 293.792 45.3182 295.011 45.3182C295.852 45.3182 296.689 45.4167 297.523 45.6136C298.356 45.8106 299.117 46.1364 299.807 46.5909C300.496 47.0379 301.049 47.6477 301.466 48.4205C301.89 49.1932 302.102 50.1591 302.102 51.3182V63H298.148V60.6023H298.011C297.761 61.0871 297.409 61.5417 296.955 61.9659C296.508 62.3826 295.943 62.7197 295.261 62.9773C294.587 63.2273 293.795 63.3523 292.886 63.3523ZM293.955 60.3295C294.78 60.3295 295.496 60.1667 296.102 59.8409C296.708 59.5076 297.174 59.0682 297.5 58.5227C297.833 57.9773 298 57.3826 298 56.7386V54.6818C297.871 54.7879 297.652 54.8864 297.341 54.9773C297.038 55.0682 296.697 55.1477 296.318 55.2159C295.939 55.2841 295.564 55.3447 295.193 55.3977C294.822 55.4508 294.5 55.4962 294.227 55.5341C293.614 55.6174 293.064 55.7538 292.58 55.9432C292.095 56.1326 291.712 56.3977 291.432 56.7386C291.152 57.072 291.011 57.5038 291.011 58.0341C291.011 58.7917 291.288 59.3636 291.841 59.75C292.394 60.1364 293.098 60.3295 293.955 60.3295ZM305.273 58.2159H309.352C309.39 58.8674 309.682 59.3712 310.227 59.7273C310.773 60.0833 311.481 60.2614 312.352 60.2614C313.239 60.2614 313.985 60.0682 314.591 59.6818C315.205 59.2879 315.511 58.6932 315.511 57.8977C315.511 57.428 315.394 57.0152 315.159 56.6591C314.924 56.2955 314.595 56.0152 314.17 55.8182C313.746 55.6212 313.246 55.5227 312.67 55.5227H310V52.6023H312.67C313.527 52.6023 314.174 52.4053 314.614 52.0114C315.061 51.6174 315.284 51.1212 315.284 50.5227C315.284 49.8788 315.049 49.3561 314.58 48.9545C314.117 48.553 313.477 48.3523 312.659 48.3523C311.841 48.3523 311.159 48.5379 310.614 48.9091C310.076 49.2803 309.795 49.7576 309.773 50.3409H305.716C305.731 49.3258 306.034 48.4432 306.625 47.6932C307.223 46.9432 308.027 46.3598 309.034 45.9432C310.049 45.5265 311.193 45.3182 312.466 45.3182C313.83 45.3182 315.008 45.5227 316 45.9318C316.992 46.3409 317.758 46.9129 318.295 47.6477C318.833 48.375 319.102 49.2311 319.102 50.2159C319.102 51.1629 318.807 51.947 318.216 52.5682C317.625 53.1818 316.83 53.6212 315.83 53.8864V54.0682C316.519 54.1061 317.14 54.303 317.693 54.6591C318.246 55.0076 318.686 55.4811 319.011 56.0795C319.337 56.678 319.5 57.3712 319.5 58.1591C319.5 59.2273 319.193 60.1515 318.58 60.9318C317.966 61.7045 317.121 62.2992 316.045 62.7159C314.977 63.1326 313.754 63.3409 312.375 63.3409C311.034 63.3409 309.833 63.1402 308.773 62.7386C307.72 62.3295 306.883 61.7424 306.261 60.9773C305.64 60.2121 305.311 59.2917 305.273 58.2159ZM326.705 57.4318L333.693 45.5455H337.92V63H333.943V51.1023L326.977 63H322.739V45.5455H326.705V57.4318ZM354.134 52.5682V55.9432H344.838V52.5682H354.134ZM346.111 45.5455V63H342.145V45.5455H346.111ZM356.827 45.5455V63H352.872V45.5455H356.827ZM366.011 63.3523C364.905 63.3523 363.909 63.1553 363.023 62.7614C362.144 62.3598 361.447 61.7689 360.932 60.9886C360.424 60.2083 360.17 59.2462 360.17 58.1023C360.17 57.1174 360.352 56.303 360.716 55.6591C361.08 55.0152 361.576 54.5 362.205 54.1136C362.833 53.7273 363.542 53.4356 364.33 53.2386C365.125 53.0341 365.947 52.8864 366.795 52.7955C367.818 52.6894 368.648 52.5947 369.284 52.5114C369.92 52.4205 370.383 52.2841 370.67 52.1023C370.966 51.9129 371.114 51.6212 371.114 51.2273V51.1591C371.114 50.303 370.86 49.6402 370.352 49.1705C369.845 48.7008 369.114 48.4659 368.159 48.4659C367.152 48.4659 366.352 48.6856 365.761 49.125C365.178 49.5644 364.784 50.0833 364.58 50.6818L360.739 50.1364C361.042 49.0758 361.542 48.1894 362.239 47.4773C362.936 46.7576 363.788 46.2197 364.795 45.8636C365.803 45.5 366.917 45.3182 368.136 45.3182C368.977 45.3182 369.814 45.4167 370.648 45.6136C371.481 45.8106 372.242 46.1364 372.932 46.5909C373.621 47.0379 374.174 47.6477 374.591 48.4205C375.015 49.1932 375.227 50.1591 375.227 51.3182V63H371.273V60.6023H371.136C370.886 61.0871 370.534 61.5417 370.08 61.9659C369.633 62.3826 369.068 62.7197 368.386 62.9773C367.712 63.2273 366.92 63.3523 366.011 63.3523ZM367.08 60.3295C367.905 60.3295 368.621 60.1667 369.227 59.8409C369.833 59.5076 370.299 59.0682 370.625 58.5227C370.958 57.9773 371.125 57.3826 371.125 56.7386V54.6818C370.996 54.7879 370.777 54.8864 370.466 54.9773C370.163 55.0682 369.822 55.1477 369.443 55.2159C369.064 55.2841 368.689 55.3447 368.318 55.3977C367.947 55.4508 367.625 55.4962 367.352 55.5341C366.739 55.6174 366.189 55.7538 365.705 55.9432C365.22 56.1326 364.837 56.3977 364.557 56.7386C364.277 57.072 364.136 57.5038 364.136 58.0341C364.136 58.7917 364.413 59.3636 364.966 59.75C365.519 60.1364 366.223 60.3295 367.08 60.3295ZM382.727 45.5455L386.25 51.9886L389.83 45.5455H394.182L388.92 54.2727L394.273 63H389.943L386.25 56.7159L382.591 63H378.227L383.545 54.2727L378.364 45.5455H382.727ZM405.301 63V45.5455H420.04V63H416.074V48.9205H409.233V63H405.301ZM424.27 69.5455V45.5455H428.315V48.4318H428.554C428.766 48.0076 429.065 47.5568 429.452 47.0795C429.838 46.5947 430.361 46.1818 431.02 45.8409C431.679 45.4924 432.52 45.3182 433.543 45.3182C434.891 45.3182 436.107 45.6629 437.19 46.3523C438.281 47.0341 439.145 48.0455 439.781 49.3864C440.425 50.7197 440.747 52.3561 440.747 54.2955C440.747 56.2121 440.433 57.8409 439.804 59.1818C439.175 60.5227 438.319 61.5455 437.236 62.25C436.152 62.9545 434.925 63.3068 433.554 63.3068C432.554 63.3068 431.724 63.1402 431.065 62.8068C430.406 62.4735 429.876 62.072 429.474 61.6023C429.08 61.125 428.774 60.6742 428.554 60.25H428.384V69.5455H424.27ZM428.304 54.2727C428.304 55.4015 428.463 56.3902 428.781 57.2386C429.107 58.0871 429.573 58.75 430.179 59.2273C430.793 59.697 431.535 59.9318 432.406 59.9318C433.315 59.9318 434.077 59.6894 434.69 59.2045C435.304 58.7121 435.766 58.0417 436.077 57.1932C436.395 56.3371 436.554 55.3636 436.554 54.2727C436.554 53.1894 436.399 52.2273 436.088 51.3864C435.777 50.5455 435.315 49.8864 434.702 49.4091C434.088 48.9318 433.323 48.6932 432.406 48.6932C431.527 48.6932 430.781 48.9242 430.168 49.3864C429.554 49.8485 429.088 50.4962 428.77 51.3295C428.459 52.1629 428.304 53.1439 428.304 54.2727ZM448.236 57.4318L455.224 45.5455H459.452V63H455.474V51.1023L448.509 63H444.27V45.5455H448.236V57.4318ZM462.472 63L462.449 59.6136H463.051C463.506 59.6136 463.888 59.5114 464.199 59.3068C464.509 59.1023 464.767 58.7614 464.972 58.2841C465.176 57.7992 465.335 57.1477 465.449 56.3295C465.563 55.5114 465.642 54.4924 465.688 53.2727L465.994 45.5455H478.722V63H474.744V48.9205H469.733L469.46 54.5455C469.392 56 469.229 57.2614 468.972 58.3295C468.722 59.3902 468.366 60.2652 467.903 60.9545C467.449 61.6439 466.877 62.1591 466.188 62.5C465.498 62.8333 464.684 63 463.744 63H462.472ZM490.477 63.3409C488.773 63.3409 487.295 62.9659 486.045 62.2159C484.795 61.4659 483.826 60.4167 483.136 59.0682C482.455 57.7197 482.114 56.1439 482.114 54.3409C482.114 52.5379 482.455 50.9583 483.136 49.6023C483.826 48.2462 484.795 47.1932 486.045 46.4432C487.295 45.6932 488.773 45.3182 490.477 45.3182C492.182 45.3182 493.659 45.6932 494.909 46.4432C496.159 47.1932 497.125 48.2462 497.807 49.6023C498.496 50.9583 498.841 52.5379 498.841 54.3409C498.841 56.1439 498.496 57.7197 497.807 59.0682C497.125 60.4167 496.159 61.4659 494.909 62.2159C493.659 62.9659 492.182 63.3409 490.477 63.3409ZM490.5 60.0455C491.424 60.0455 492.197 59.7917 492.818 59.2841C493.439 58.7689 493.902 58.0795 494.205 57.2159C494.515 56.3523 494.67 55.3902 494.67 54.3295C494.67 53.2614 494.515 52.2955 494.205 51.4318C493.902 50.5606 493.439 49.8674 492.818 49.3523C492.197 48.8371 491.424 48.5795 490.5 48.5795C489.553 48.5795 488.765 48.8371 488.136 49.3523C487.515 49.8674 487.049 50.5606 486.739 51.4318C486.436 52.2955 486.284 53.2614 486.284 54.3295C486.284 55.3902 486.436 56.3523 486.739 57.2159C487.049 58.0795 487.515 58.7689 488.136 59.2841C488.765 59.7917 489.553 60.0455 490.5 60.0455ZM500.54 63L506.983 53.9886L500.597 45.5455H505.347L510.312 52.5795H511.29V45.5455H515.403V52.5795H516.358L521.324 45.5455H526.074L519.722 53.9886L526.131 63H521.278L516.312 55.9545H515.403V63H511.29V55.9545H510.381L505.392 63H500.54ZM536.278 63.3409C534.528 63.3409 533.017 62.9773 531.744 62.25C530.479 61.5152 529.506 60.4773 528.824 59.1364C528.142 57.7879 527.801 56.2008 527.801 54.375C527.801 52.5795 528.142 51.0038 528.824 49.6477C529.513 48.2841 530.475 47.2235 531.71 46.4659C532.945 45.7008 534.396 45.3182 536.062 45.3182C537.138 45.3182 538.153 45.4924 539.108 45.8409C540.07 46.1818 540.919 46.7121 541.653 47.4318C542.396 48.1515 542.979 49.0682 543.403 50.1818C543.828 51.2879 544.04 52.6061 544.04 54.1364V55.3977H529.733V52.625H540.097C540.089 51.8371 539.919 51.1364 539.585 50.5227C539.252 49.9015 538.786 49.4129 538.188 49.0568C537.597 48.7008 536.907 48.5227 536.119 48.5227C535.278 48.5227 534.54 48.7273 533.903 49.1364C533.267 49.5379 532.771 50.0682 532.415 50.7273C532.066 51.3788 531.888 52.0947 531.881 52.875V55.2955C531.881 56.3106 532.066 57.1818 532.438 57.9091C532.809 58.6288 533.328 59.1818 533.994 59.5682C534.661 59.947 535.441 60.1364 536.335 60.1364C536.934 60.1364 537.475 60.053 537.96 59.8864C538.445 59.7121 538.866 59.4583 539.222 59.125C539.578 58.7917 539.847 58.3788 540.028 57.8864L543.869 58.3182C543.627 59.3333 543.165 60.2197 542.483 60.9773C541.809 61.7273 540.945 62.3106 539.892 62.7273C538.839 63.1364 537.634 63.3409 536.278 63.3409ZM559.509 52.5682V55.9432H550.213V52.5682H559.509ZM551.486 45.5455V63H547.52V45.5455H551.486ZM562.202 45.5455V63H558.247V45.5455H562.202ZM570.33 57.4318L577.318 45.5455H581.545V63H577.568V51.1023L570.602 63H566.364V45.5455H570.33V57.4318ZM589.736 57.4318L596.724 45.5455H600.952V63H596.974V51.1023L590.009 63H585.77V45.5455H589.736V57.4318ZM595.599 39.5455H598.679C598.679 40.8712 598.198 41.947 597.236 42.7727C596.281 43.5909 594.986 44 593.349 44C591.728 44 590.437 43.5909 589.474 42.7727C588.52 41.947 588.046 40.8712 588.054 39.5455H591.111C591.111 40.0909 591.277 40.5795 591.611 41.0114C591.952 41.4356 592.531 41.6477 593.349 41.6477C594.152 41.6477 594.724 41.4356 595.065 41.0114C595.414 40.5871 595.592 40.0985 595.599 39.5455Z" fill="black"/>
<g filter="url(#filter0_d_41_43230)">
<rect x="30" y="95" width="370" height="51" rx="13" fill="#FDC636"/>
</g>
<g filter="url(#filter1_d_41_43230)">
<rect x="30" y="170" width="370" height="51" rx="13" fill="#FDC636"/>
</g>
<g filter="url(#filter2_d_41_43230)">
<rect x="424" y="95" width="370" height="51" rx="13" fill="#FDC636"/>
</g>
<defs>
<filter id="filter0_d_41_43230" x="0" y="75" width="430" height="111" filterUnits="userSpaceOnUse" color-interpolation-filters="sRGB">
<feFlood flood-opacity="0" result="BackgroundImageFix"/>
<feColorMatrix in="SourceAlpha" type="matrix" values="0 0 0 0 0 0 0 0 0 0 0 0 0 0 0 0 0 0 127 0" result="hardAlpha"/>
<feOffset dy="10"/>
<feGaussianBlur stdDeviation="15"/>
<feComposite in2="hardAlpha" operator="out"/>
<feColorMatrix type="matrix" values="0 0 0 0 0 0 0 0 0 0 0 0 0 0 0 0 0 0 0.08 0"/>
<feBlend mode="normal" in2="BackgroundImageFix" result="effect1_dropShadow_41_43230"/>
<feBlend mode="normal" in="SourceGraphic" in2="effect1_dropShadow_41_43230" result="shape"/>
</filter>
<filter id="filter1_d_41_43230" x="0" y="150" width="430" height="111" filterUnits="userSpaceOnUse" color-interpolation-filters="sRGB">
<feFlood flood-opacity="0" result="BackgroundImageFix"/>
<feColorMatrix in="SourceAlpha" type="matrix" values="0 0 0 0 0 0 0 0 0 0 0 0 0 0 0 0 0 0 127 0" result="hardAlpha"/>
<feOffset dy="10"/>
<feGaussianBlur stdDeviation="15"/>
<feComposite in2="hardAlpha" operator="out"/>
<feColorMatrix type="matrix" values="0 0 0 0 0 0 0 0 0 0 0 0 0 0 0 0 0 0 0.08 0"/>
<feBlend mode="normal" in2="BackgroundImageFix" result="effect1_dropShadow_41_43230"/>
<feBlend mode="normal" in="SourceGraphic" in2="effect1_dropShadow_41_43230" result="shape"/>
</filter>
<filter id="filter2_d_41_43230" x="394" y="75" width="430" height="111" filterUnits="userSpaceOnUse" color-interpolation-filters="sRGB">
<feFlood flood-opacity="0" result="BackgroundImageFix"/>
<feColorMatrix in="SourceAlpha" type="matrix" values="0 0 0 0 0 0 0 0 0 0 0 0 0 0 0 0 0 0 127 0" result="hardAlpha"/>
<feOffset dy="10"/>
<feGaussianBlur stdDeviation="15"/>
<feComposite in2="hardAlpha" operator="out"/>
<feColorMatrix type="matrix" values="0 0 0 0 0 0 0 0 0 0 0 0 0 0 0 0 0 0 0.08 0"/>
<feBlend mode="normal" in2="BackgroundImageFix" result="effect1_dropShadow_41_43230"/>
<feBlend mode="normal" in="SourceGraphic" in2="effect1_dropShadow_41_43230" result="shape"/>
</filter>
</defs>
</svg>
