<svg width="146" height="34" viewBox="0 0 146 34" fill="none" xmlns="http://www.w3.org/2000/svg">
<path d="M1.28027 7.29472H6.89231L6.86926 26.5334H11.4362L11.4593 7.29472H17.0534L17.0585 3.42188H1.2854L1.28027 7.29472ZM17.663 4.02893L22.166 17.671C22.4708 18.5982 22.9754 19.0567 24.1536 19.0567H25.0578L21.9047 26.0135L21.9021 26.5334H26.6279L35.3597 4.00331V3.42188H30.6365L26.6382 15.6193H26.0029L22.3273 3.42188H17.663V4.02893ZM33.098 22.8066L34.6016 26.559C39.9267 25.3321 40.9667 20.906 40.9718 14.5256L40.982 7.11286H46.3046L46.2841 26.5334H50.8819L50.9075 3.42188H36.7506L36.7378 14.3488C36.7327 19.8277 36.246 21.864 33.098 22.8066ZM55.162 26.5334H69.7722L69.7671 30.5753H74.0318L74.0395 22.8424H71.3475L71.3705 3.42188H66.7728L66.7497 22.8424H59.7622L59.7853 3.42188H55.1876L55.162 26.5334ZM76.2935 26.5334H89.9407L89.9458 22.8424H80.8964L80.9041 16.5209H88.7727L88.7778 12.8299H80.9066L80.9143 7.11286H89.7178L89.7204 3.42188H76.3217L76.2935 26.5334ZM92.8351 26.5334H97.4328L97.443 16.7617H104.433L104.42 26.5334H109.018L109.044 3.42188H104.446L104.436 12.8299H97.4482L97.4584 3.42188H92.8607L92.8351 26.5334ZM111.369 7.29472H116.981L116.958 26.5334H121.525L121.548 7.29472H127.145L127.148 3.42188H111.375L111.369 7.29472ZM129.422 26.5334H134.02L134.028 18.0936H141.44C143.612 18.0936 144.709 16.9999 144.709 14.8227L144.719 6.73121C144.721 4.53096 143.63 3.43724 141.456 3.42188H129.448L129.422 26.5334ZM134.033 14.4948L134.04 7.11286H140.152L140.144 14.4948H134.033Z" fill="black"/>
</svg>
