<svg width="19" height="16" viewBox="0 0 19 16" fill="none" xmlns="http://www.w3.org/2000/svg">
<path fill-rule="evenodd" clip-rule="evenodd" d="M0.900391 4.97827C0.900391 2.24658 3.06543 0 5.7749 0C7.18994 0 8.41699 0.74854 9.26809 1.76904C9.50489 2.05334 9.71729 2.36353 9.89989 2.69263C10.083 2.36365 10.2949 2.05347 10.5317 1.76917C11.3818 0.74866 12.6089 0 14.0239 0C16.7334 0 18.8984 2.24658 18.8984 4.97827C18.8984 7.4006 17.3897 9.5485 15.6655 11.3159C14.3438 12.6709 12.791 13.902 11.4951 14.9297C11.0923 15.2493 10.7139 15.5492 10.375 15.827C10.0986 16.0537 9.70019 16.0537 9.42379 15.827C9.08499 15.5492 8.70699 15.2493 8.30369 14.9297C7.00781 13.902 5.45508 12.6709 4.1333 11.3159C2.40918 9.5485 0.900391 7.4006 0.900391 4.97827ZM10.6504 5.5H9.15039C9.15039 4.521 8.75879 3.50073 8.11569 2.72949C7.47314 1.95886 6.63769 1.5 5.7749 1.5C3.92871 1.5 2.40039 3.03967 2.40039 4.97827C2.40039 6.7843 3.54297 8.5627 5.20703 10.2686C6.45459 11.5477 7.89551 12.6904 9.17969 13.7089C9.42629 13.9044 9.66699 14.0955 9.89939 14.2819C10.1318 14.0955 10.3726 13.9044 10.6192 13.7089C11.9033 12.6904 13.3442 11.5477 14.5918 10.2686C16.2559 8.5627 17.3984 6.7843 17.3984 4.97827C17.3984 3.03967 15.8701 1.5 14.0239 1.5C13.1611 1.5 12.3262 1.95874 11.6841 2.72937C11.0415 3.50049 10.6504 4.52075 10.6504 5.5Z" fill="#0E1117"/>
</svg>
