<svg width="17" height="18" viewBox="0 0 17 18" fill="none" xmlns="http://www.w3.org/2000/svg">
<path fill-rule="evenodd" clip-rule="evenodd" d="M11.4004 4C11.4004 5.38074 10.2813 6.5 8.90039 6.5C7.51949 6.5 6.40039 5.38074 6.40039 4C6.40039 2.61926 7.51949 1.5 8.90039 1.5C10.2813 1.5 11.4004 2.61926 11.4004 4ZM12.9004 4C12.9004 6.20911 11.1094 8 8.90039 8C6.69141 8 4.90039 6.20911 4.90039 4C4.90039 1.79089 6.69141 0 8.90039 0C11.1094 0 12.9004 1.79089 12.9004 4ZM2.40039 17.9412C2.40039 17.9608 2.40039 17.9805 2.40088 18H0.900391V17.9412C0.900391 13.5554 4.51465 10 8.90039 10C13.2861 10 16.9004 13.5554 16.9004 17.9412V18H15.3999C15.4004 17.9805 15.4004 17.9608 15.4004 17.9412C15.4004 14.3982 12.4722 11.5 8.90039 11.5C5.32861 11.5 2.40039 14.3982 2.40039 17.9412Z" fill="#0E1117"/>
</svg>
