<svg width="24" height="23" viewBox="0 0 24 23" fill="none" xmlns="http://www.w3.org/2000/svg">
<path d="M0.900391 1.25C0.900391 1.05109 0.979408 0.860322 1.12006 0.71967C1.26071 0.579018 1.45148 0.5 1.65039 0.5H3.90039C4.06769 0.500046 4.23017 0.556026 4.36199 0.659037C4.49381 0.762048 4.5874 0.906176 4.62789 1.0685L5.23539 3.5H22.6504C22.7605 3.5001 22.8693 3.52445 22.9689 3.57133C23.0686 3.6182 23.1567 3.68644 23.227 3.77121C23.2973 3.85597 23.3481 3.95518 23.3757 4.06178C23.4033 4.16838 23.4072 4.27976 23.3869 4.388L21.1369 16.388C21.1047 16.5599 21.0135 16.7151 20.879 16.8268C20.7445 16.9386 20.5752 16.9998 20.4004 17H6.90039C6.72554 16.9998 6.55624 16.9386 6.42176 16.8268C6.28727 16.7151 6.19606 16.5599 6.16389 16.388L3.91539 4.4105L3.31539 2H1.65039C1.45148 2 1.26071 1.92098 1.12006 1.78033C0.979408 1.63968 0.900391 1.44891 0.900391 1.25ZM5.55339 5L7.52289 15.5H19.7779L21.7474 5H5.55339ZM8.40039 17C7.60474 17 6.84168 17.3161 6.27907 17.8787C5.71646 18.4413 5.40039 19.2044 5.40039 20C5.40039 20.7956 5.71646 21.5587 6.27907 22.1213C6.84168 22.6839 7.60474 23 8.40039 23C9.19604 23 9.9591 22.6839 10.5217 22.1213C11.0843 21.5587 11.4004 20.7956 11.4004 20C11.4004 19.2044 11.0843 18.4413 10.5217 17.8787C9.9591 17.3161 9.19604 17 8.40039 17ZM18.9004 17C18.1047 17 17.3417 17.3161 16.7791 17.8787C16.2165 18.4413 15.9004 19.2044 15.9004 20C15.9004 20.7956 16.2165 21.5587 16.7791 22.1213C17.3417 22.6839 18.1047 23 18.9004 23C19.696 23 20.4591 22.6839 21.0217 22.1213C21.5843 21.5587 21.9004 20.7956 21.9004 20C21.9004 19.2044 21.5843 18.4413 21.0217 17.8787C20.4591 17.3161 19.696 17 18.9004 17ZM8.40039 18.5C8.79822 18.5 9.17975 18.658 9.46105 18.9393C9.74236 19.2206 9.90039 19.6022 9.90039 20C9.90039 20.3978 9.74236 20.7794 9.46105 21.0607C9.17975 21.342 8.79822 21.5 8.40039 21.5C8.00257 21.5 7.62104 21.342 7.33973 21.0607C7.05843 20.7794 6.90039 20.3978 6.90039 20C6.90039 19.6022 7.05843 19.2206 7.33973 18.9393C7.62104 18.658 8.00257 18.5 8.40039 18.5ZM18.9004 18.5C19.2982 18.5 19.6797 18.658 19.9611 18.9393C20.2424 19.2206 20.4004 19.6022 20.4004 20C20.4004 20.3978 20.2424 20.7794 19.9611 21.0607C19.6797 21.342 19.2982 21.5 18.9004 21.5C18.5026 21.5 18.121 21.342 17.8397 21.0607C17.5584 20.7794 17.4004 20.3978 17.4004 20C17.4004 19.6022 17.5584 19.2206 17.8397 18.9393C18.121 18.658 18.5026 18.5 18.9004 18.5Z" fill="black"/>
</svg>
